<svg width="48" height="48" viewBox="0 0 48 48" fill="none" xmlns="http://www.w3.org/2000/svg">
<g clip-path="url(#clip0_22_43)">
<rect width="48" height="48" fill="white"/>
<path d="M31.5 41.5C31.5 41.8434 31.3294 42.3286 30.681 42.9324C30.0305 43.5384 29.0073 44.1531 27.6175 44.7006C24.8468 45.7921 20.9167 46.5 16.5 46.5C12.0833 46.5 8.15321 45.7921 5.38252 44.7006C3.99269 44.1531 2.96955 43.5384 2.31898 42.9324C1.6706 42.3286 1.5 41.8434 1.5 41.5C1.5 41.1566 1.6706 40.6714 2.31898 40.0676C2.96955 39.4616 3.99269 38.8469 5.38252 38.2994C8.15321 37.2079 12.0833 36.5 16.5 36.5C20.9167 36.5 24.8468 37.2079 27.6175 38.2994C29.0073 38.8469 30.0305 39.4616 30.681 40.0676C31.3294 40.6714 31.5 41.1566 31.5 41.5Z" stroke="#152C5B" stroke-width="3"/>
<path d="M28.5 13.5C28.5 16.9757 27.0526 23.9065 24.6506 29.9955C23.4543 33.028 22.0613 35.7462 20.568 37.678C19.0286 39.6695 17.6411 40.5 16.5 40.5C15.3589 40.5 13.9714 39.6695 12.432 37.678C10.9387 35.7462 9.54568 33.028 8.34941 29.9955C5.94744 23.9065 4.5 16.9757 4.5 13.5C4.5 6.87258 9.87258 1.5 16.5 1.5C23.1274 1.5 28.5 6.87258 28.5 13.5Z" fill="white" stroke="#152C5B" stroke-width="3"/>
<circle cx="16.5" cy="14.5" r="5" stroke="#FF498B" stroke-width="3"/>
</g>
<defs>
<clipPath id="clip0_22_43">
<rect width="48" height="48" fill="white"/>
</clipPath>
</defs>
</svg>
