<svg width="48" height="45" viewBox="0 0 48 45" fill="none" xmlns="http://www.w3.org/2000/svg">
<circle cx="23.5" cy="24.5" r="6" stroke="#FF498B" stroke-width="3"/>
<path d="M34.2917 19H40.1667" stroke="#152C5B" stroke-width="3" stroke-linecap="round"/>
<mask id="path-3-inside-1_22_70" fill="white">
<path fill-rule="evenodd" clip-rule="evenodd" d="M17.2086 5C16.3802 5 15.6376 5.51065 15.3411 6.28413L13.3417 11.5H8C3.58172 11.5 0 15.0817 0 19.5V32.75C0 37.1683 3.58172 40.75 8 40.75H40C44.4183 40.75 48 37.1683 48 32.75V19.5C48 15.0817 44.4183 11.5 40 11.5H33.6583L31.6589 6.28413C31.3624 5.51065 30.6198 5 29.7914 5H17.2086Z"/>
</mask>
<path d="M15.3411 6.28413L18.1423 7.35793V7.35793L15.3411 6.28413ZM13.3417 11.5V14.5H15.4045L16.1429 12.5738L13.3417 11.5ZM33.6583 11.5L30.8571 12.5738L31.5955 14.5H33.6583V11.5ZM31.6589 6.28413L34.4602 5.21032L34.4602 5.21032L31.6589 6.28413ZM18.1423 7.35793C17.9941 7.74468 17.6228 8 17.2086 8V2C15.1377 2 13.2811 3.27662 12.5398 5.21032L18.1423 7.35793ZM16.1429 12.5738L18.1423 7.35793L12.5398 5.21032L10.5404 10.4262L16.1429 12.5738ZM8 14.5H13.3417V8.5H8V14.5ZM3 19.5C3 16.7386 5.23858 14.5 8 14.5V8.5C1.92487 8.5 -3 13.4249 -3 19.5H3ZM3 32.75V19.5H-3V32.75H3ZM8 37.75C5.23858 37.75 3 35.5114 3 32.75H-3C-3 38.8251 1.92487 43.75 8 43.75V37.75ZM40 37.75H8V43.75H40V37.75ZM45 32.75C45 35.5114 42.7614 37.75 40 37.75V43.75C46.0751 43.75 51 38.8251 51 32.75H45ZM45 19.5V32.75H51V19.5H45ZM40 14.5C42.7614 14.5 45 16.7386 45 19.5H51C51 13.4249 46.0751 8.5 40 8.5V14.5ZM33.6583 14.5H40V8.5H33.6583V14.5ZM28.8577 7.35794L30.8571 12.5738L36.4596 10.4262L34.4602 5.21032L28.8577 7.35794ZM29.7914 8C29.3772 8 29.0059 7.74467 28.8577 7.35794L34.4602 5.21032C33.7189 3.27663 31.8623 2 29.7914 2V8ZM17.2086 8H29.7914V2H17.2086V8Z" fill="#152C5B" mask="url(#path-3-inside-1_22_70)"/>
</svg>
